<svg width="56" height="56" viewBox="0 0 56 56" fill="none" xmlns="http://www.w3.org/2000/svg">
<path d="M0 28C0 43.464 12.536 56 28 56C43.464 56 56 43.464 56 28C56 12.536 43.464 0 28 0C12.536 0 0 12.536 0 28Z" fill="#1DA1F2"/>
<path d="M42 19.25C40.95 19.775 39.9 19.95 38.675 20.125C39.9 19.425 40.775 18.375 41.125 16.975C40.075 17.675 38.85 18.025 37.45 18.375C36.4 17.325 34.825 16.625 33.25 16.625C29.575 16.625 26.775 20.125 27.65 23.625C22.925 23.45 18.725 21.175 15.75 17.675C14.175 20.3 15.05 23.625 17.5 25.375C16.625 25.375 15.75 25.025 14.875 24.675C14.875 27.3 16.8 29.75 19.425 30.45C18.55 30.625 17.675 30.8 16.8 30.625C17.5 32.9 19.6 34.65 22.225 34.65C20.125 36.225 16.975 37.1 14 36.75C16.625 38.325 19.6 39.375 22.75 39.375C33.425 39.375 39.375 30.45 39.025 22.225C40.25 21.525 41.3 20.475 42 19.25Z" fill="white"/>
</svg>
